<svg width="39" height="23" viewBox="0 0 39 23" fill="none" xmlns="http://www.w3.org/2000/svg">
<path d="M17.2154 22.6925H14.2462L2.96923 5.44251V22.6925H0V0.307487H2.96923L14.2769 17.6344V0.307487H17.2154V22.6925Z" fill="#272169"/>
<path d="M39 19.756C38.241 20.8425 37.1795 21.6573 35.8154 22.2005C34.4615 22.7335 32.8821 23 31.0769 23C29.2513 23 27.6308 22.5746 26.2154 21.7239C24.8 20.863 23.7026 19.6433 22.9231 18.0648C22.1538 16.4864 21.759 14.6569 21.7385 12.5762V10.6237C21.7385 7.25156 22.5231 4.63792 24.0923 2.78275C25.6718 0.927585 27.8872 0 30.7385 0C33.0769 0 34.959 0.599599 36.3846 1.7988C37.8103 2.98775 38.6821 4.67892 39 6.87233H36.0462C35.4923 3.9102 33.7282 2.42914 30.7538 2.42914C28.7744 2.42914 27.2718 3.12611 26.2462 4.52005C25.2308 5.90374 24.7179 7.91266 24.7077 10.5468V12.3763C24.7077 14.8875 25.2821 16.8861 26.4308 18.3723C27.5795 19.8483 29.1333 20.5862 31.0923 20.5862C32.2 20.5862 33.1692 20.4632 34 20.2172C34.8308 19.9713 35.5179 19.5561 36.0615 18.9719V13.9445H30.8769V11.5461H39V19.756Z" fill="#272169"/>
</svg>
